# xmcd CD database file
#
# Track frame offsets:
#	150
#	23446
#	40978
#	64001
#	67459
#	85311
#	103425
#	118804
#	133293
#	154766
#	184700
#
# Disc length: 2842 seconds
#
# Revision: 0
# Processed by: cddbd v1.5.2PL0 Copyright (c) Steve Scherf et al.
# Submitted via: CDex 1.51
#
DISCID=a20b180b
DTITLE=MANGO MOLAS - ULTIMA RUMBA
DYEAR=2007
DGENRE=Salsa
TTITLE0=ÈAKANIE NA GODATA
TTITLE1=QUINTO ELEMENTO
TTITLE2=MAS COMO CANSADO
TTITLE3=ANGEL
TTITLE4=EL BARCO
TTITLE5=NADÝCHANÉ
TTITLE6=NEDE¼A
TTITLE7=NEGRA FRONTERA
TTITLE8=AEROPORTO BATUCADA
TTITLE9=DAR
TTITLE10=ULTIMA RUMBA
EXTD=YEAR: 2007
EXTT0=
EXTT1=
EXTT2=
EXTT3=
EXTT4=
EXTT5=
EXTT6=
EXTT7=
EXTT8=
EXTT9=
EXTT10=
PLAYORDER=
